PathFileType	4	(X/Y/Z)	imu.trc
DataRate	CameraRate	NumFrames	NumMarkers	Units	OrigDataRate	OrigDataStartFrame	OrigNumFrames
60	60	117	2	mm	60	207	1033
Frame#	Time	thigh calf
X1	Y1	Z1	X2	Y2	Z2

207	2.06	6.17582	4.84731	4.77463	0.0517228	4.94782	4.86354	
208	2.07	6.19488	4.84193	4.79229	0.0524862	4.94742	4.86518	
209	2.08	6.20185	4.83997	4.79881	0.0534796	4.9467	4.86704	
210	2.09	6.22572	4.83426	4.82128	0.0588742	4.94455	4.87353	
211	2.1	6.24326	4.8311	4.83781	0.0622132	4.94333	4.87724	
212	2.11	6.25977	4.82892	4.85321	0.0652185	4.94225	4.88044	
213	2.12	6.27578	4.8278	4.86819	0.0672685	4.94152	4.88252	
214	2.13	0.00880588	4.82761	4.8835	0.0686405	4.94103	4.88376	
215	2.14	0.0260453	4.828	4.89994	0.0713949	4.94029	4.88595	
216	2.15	0.0448776	4.82849	4.91792	0.0731033	4.94003	4.88726	
217	2.16	0.0647733	4.82888	4.93659	0.0752832	4.93991	4.889	
218	2.17	0.0845108	4.82929	4.95465	0.0779779	4.93993	4.89125	
219	2.18	0.103187	4.8298	4.97135	0.0806979	4.94001	4.89353	
220	2.19	0.120081	4.83028	4.9861	0.0879114	4.94033	4.90034	
221	2.2	0.135358	4.83089	4.99911	0.0918315	4.94053	4.90409	
222	2.21	0.148979	4.8319	5.01043	0.0958684	4.94076	4.90787	
223	2.22	0.154887	4.83263	5.01516	0.0996935	4.94101	4.91141	
224	2.23	0.160548	4.83353	5.01962	0.103655	4.94125	4.915	
225	2.24	0.172932	4.83581	5.02935	0.11171	4.94165	4.9223	
226	2.25	0.196524	4.83966	5.04816	0.115964	4.94192	4.92615	
227	2.26	0.211305	4.84099	5.06045	0.120408	4.94236	4.93033	
228	2.27	0.218797	4.84151	5.06672	0.124858	4.94304	4.93455	
229	2.28	0.233379	4.84262	5.07872	0.129046	4.94403	4.93855	
230	2.29	0.245326	4.84419	5.08808	0.132466	4.94534	4.94179	
231	2.3	0.254108	4.8464	5.09429	0.137758	4.9484	4.94614	
232	2.31	0.25963	4.84929	5.09719	0.140299	4.94999	4.94807	
233	2.32	0.261974	4.8528	5.09678	0.143097	4.95148	4.95016	
234	2.33	0.262422	4.85645	5.09442	0.146635	4.95283	4.95292	
235	2.34	0.261756	4.85973	5.09102	0.151173	4.95418	4.95632	
236	2.35	0.260195	4.86251	5.08703	0.155708	4.95568	4.95973	
237	2.36	0.257631	4.86473	5.0823	0.162138	4.95906	4.96362	
238	2.37	0.25319	4.86651	5.0759	0.164699	4.96076	4.96496	
239	2.38	0.248207	4.86804	5.06901	0.167557	4.96221	4.96649	
240	2.39	0.244558	4.86959	5.06337	0.172236	4.96349	4.96982	
241	2.4	0.24253	4.87108	5.05921	0.178411	4.96472	4.97434	
242	2.41	0.243294	4.87219	5.05743	0.191856	4.96805	4.98446	
243	2.42	0.248238	4.87257	5.05925	0.197599	4.97028	4.98855	
244	2.43	0.257548	4.87205	5.06494	0.202071	4.97272	4.99123	
245	2.44	0.270974	4.87088	5.0745	0.205582	4.97524	4.99308	
246	2.45	0.287088	4.86916	5.08677	0.214693	4.97909	4.999	
247	2.46	0.30476	4.86709	5.10084	0.222524	4.98059	5.00481	
248	2.47	0.322422	4.86501	5.11527	0.230894	4.98213	5.01109	
249	2.48	0.338962	4.86331	5.12901	0.241079	4.98395	5.01871	
250	2.49	0.353301	4.86223	5.14097	0.251059	4.98621	5.02575	
251	2.5	0.365541	4.86157	5.15114	0.262992	4.99201	5.03199	
252	2.51	0.376694	4.86072	5.16061	0.262992	4.99201	5.03199	
253	2.52	0.387923	4.85945	5.1705	0.265481	4.99701	5.02958	
254	2.53	0.399664	4.85828	5.18124	0.266367	4.99814	5.02825	
255	2.54	0.412459	4.85696	5.1934	0.270746	4.99756	5.03036	
256	2.55	0.425445	4.8558	5.20611	0.295791	4.9934	5.05023	
257	2.56	0.437887	4.85492	5.2185	0.316271	4.99096	5.06785	
258	2.57	0.449216	4.85429	5.22962	0.336136	4.98903	5.08492	
259	2.58	0.459236	4.85395	5.2391	0.356528	4.98849	5.10235	
260	2.59	0.468334	4.8539	5.24745	0.376217	4.98921	5.11909	
261	2.6	0.477882	4.85385	5.25618	0.407329	4.99308	5.1445	
262	2.61	0.487384	4.85339	5.26475	0.417972	4.99532	5.15257	
263	2.62	0.496334	4.85242	5.27266	0.427319	4.99741	5.15956	
264	2.63	0.504657	4.8513	5.27984	0.434202	4.99889	5.1649	
265	2.64	0.511472	4.85061	5.28559	0.441637	4.99972	5.17095	
266	2.65	0.51527	4.85068	5.28844	0.449718	4.99993	5.17775	
267	2.66	0.514878	4.85153	5.28715	0.466737	4.99927	5.19261	
268	2.67	0.510855	4.85281	5.28241	0.474543	4.99903	5.19953	
269	2.68	0.506307	4.85379	5.27718	0.480552	4.99928	5.20482	
270	2.69	0.504119	4.85419	5.27445	0.484847	4.99994	5.20852	
271	2.7	0.507573	4.85342	5.27769	0.487938	5.00075	5.21112	
272	2.71	0.519491	4.85127	5.29019	0.492083	5.00186	5.21492	
273	2.72	0.542129	4.84759	5.31426	0.494735	5.00156	5.21749	
274	2.73	0.575703	4.84344	5.34999	0.498847	5.00058	5.22152	
275	2.74	0.620527	4.84047	5.39809	0.502069	4.99966	5.22471	
276	2.75	0.672732	4.83943	5.45558	0.505552	4.99866	5.22814	
277	2.76	0.728379	4.84003	5.51923	0.509993	4.99754	5.2326	
278	2.77	0.757192	4.84058	5.55309	0.510611	4.99745	5.2334	
279	2.78	0.787851	4.84104	5.58942	0.510683	4.99758	5.23378	
280	2.79	0.787851	4.84104	5.58942	0.510558	4.99787	5.23411	
281	2.8	0.8194	4.84129	5.62739	0.510703	4.99798	5.23481	
282	2.81	0.851554	4.84141	5.66644	0.512626	4.99731	5.23808	
283	2.82	0.851554	4.84141	5.66644	0.513871	4.99688	5.24016	
284	2.83	0.884016	4.84156	5.70593	0.514716	4.99647	5.24192	
285	2.84	0.932526	4.84861	5.78467	0.515374	4.99613	5.24358	
286	2.85	0.776322	4.86597	5.64011	0.516526	4.99558	5.24592	
287	2.86	0.721439	4.87594	5.59108	0.5185	4.99476	5.24917	
288	2.87	0.700444	4.8826	5.57493	0.527373	4.99187	5.2609	
289	2.88	0.698551	4.88648	5.57647	0.534691	4.98969	5.26971	
290	2.89	0.703932	4.88855	5.58434	0.54328	4.98695	5.27957	
291	2.9	0.708379	4.88972	5.59114	0.552157	4.98413	5.28937	
292	2.91	0.706015	4.8908	5.5915	0.560421	4.98153	5.29812	
293	2.92	0.695595	4.89225	5.58442	0.568827	4.97805	5.30518	
294	2.93	0.678894	4.89422	5.57172	0.562114	4.97803	5.29688	
295	2.94	0.660199	4.89677	5.5575	0.549868	4.97914	5.28225	
296	2.95	0.643067	4.89975	5.54499	0.533976	4.98111	5.26345	
297	2.96	0.629219	4.90286	5.53571	0.516363	4.98376	5.24242	
298	2.97	0.619395	4.90562	5.5303	0.491758	4.98857	5.20904	
299	2.98	0.614304	4.90759	5.52962	0.486994	4.98984	5.19885	
300	2.99	0.611335	4.90911	5.5314	0.484951	4.9906	5.19082	
301	3	0.607576	4.91076	5.53292	0.484203	4.99113	5.18379	
302	3.01	0.601704	4.91295	5.53279	0.481699	4.99218	5.1751	
303	3.02	0.59124	4.91588	5.52887	0.468287	4.99744	5.15063	
304	3.03	0.579582	4.9191	5.5247	0.458412	5.00173	5.13648	
305	3.04	0.570284	4.92179	5.52344	0.447805	5.00677	5.12254	
306	3.05	0.56406	4.92377	5.52543	0.439473	5.01152	5.11145	
307	3.06	0.560439	4.92526	5.52975	0.43197	5.0153	5.10241	
308	3.07	0.557235	4.92683	5.5342	0.423843	5.01795	5.09463	
309	3.08	0.552701	4.92881	5.53702	0.41194	5.01881	5.08734	
310	3.09	0.545223	4.93151	5.53664	0.410623	5.01695	5.09023	
311	3.1	0.533979	4.93524	5.53241	0.412686	5.01321	5.09771	
312	3.11	0.519106	4.93995	5.52452	0.416386	5.00837	5.10825	
313	3.12	0.502182	4.94527	5.51453	0.421256	5.00326	5.12073	
314	3.13	0.493401	4.94796	5.50921	0.43445	4.99438	5.15059	
315	3.14	0.485502	4.95033	5.50471	0.440688	4.99163	5.1659	
316	3.15	0.478668	4.95228	5.50124	0.444272	4.99004	5.17936	
317	3.16	0.459509	4.95733	5.49188	0.444738	4.98969	5.19028	
318	3.17	0.437066	4.96321	5.47956	0.44319	4.99004	5.19929	
319	3.18	0.410502	4.97096	5.46312	0.437131	4.99163	5.21448	
320	3.19	0.390587	4.97709	5.44985	0.433391	4.99235	5.22151	
321	3.2	0.371096	4.98341	5.43666	0.429911	4.99282	5.22866	
322	3.21	0.353616	4.98947	5.42475	0.426728	4.9931	5.23604	
323	3.22	0.338765	4.99472	5.41435	0.423786	4.99327	5.24341	
